<svg width="20" height="20" viewBox="0 0 20 20" fill="none" xmlns="http://www.w3.org/2000/svg">
<path d="M5.83325 5.00002C5.83325 4.77901 5.92105 4.56705 6.07733 4.41076C6.23361 4.25448 6.44557 4.16669 6.66659 4.16669H13.3333C13.5543 4.16669 13.7662 4.25448 13.9225 4.41076C14.0788 4.56705 14.1666 4.77901 14.1666 5.00002V6.66669C14.1666 6.8877 14.0788 7.09966 13.9225 7.25594C13.7662 7.41222 13.5543 7.50002 13.3333 7.50002H6.66659C6.44557 7.50002 6.23361 7.41222 6.07733 7.25594C5.92105 7.09966 5.83325 6.8877 5.83325 6.66669V5.00002ZM7.08325 6.25002H12.9166V5.41669H7.08325V6.25002ZM3.33325 3.75002C3.33325 3.19749 3.55275 2.66758 3.94345 2.27688C4.33415 1.88618 4.86405 1.66669 5.41659 1.66669H14.9999C15.2735 1.66669 15.5444 1.72057 15.7972 1.82527C16.0499 1.92997 16.2796 2.08343 16.4731 2.27688C16.6665 2.47034 16.82 2.7 16.9247 2.95276C17.0294 3.20552 17.0833 3.47643 17.0833 3.75002V15.625C17.0833 15.7908 17.0174 15.9498 16.9002 16.067C16.783 16.1842 16.624 16.25 16.4583 16.25H4.58325C4.58325 16.471 4.67105 16.683 4.82733 16.8393C4.98361 16.9956 5.19557 17.0834 5.41659 17.0834H16.4583C16.624 17.0834 16.783 17.1492 16.9002 17.2664C17.0174 17.3836 17.0833 17.5426 17.0833 17.7084C17.0833 17.8741 17.0174 18.0331 16.9002 18.1503C16.783 18.2675 16.624 18.3334 16.4583 18.3334H5.41659C4.86405 18.3334 4.33415 18.1139 3.94345 17.7232C3.55275 17.3325 3.33325 16.8026 3.33325 16.25V3.75002ZM4.58325 15H15.8333V3.75002C15.8333 3.52901 15.7455 3.31704 15.5892 3.16076C15.4329 3.00448 15.2209 2.91669 14.9999 2.91669H5.41659C5.19557 2.91669 4.98361 3.00448 4.82733 3.16076C4.67105 3.31704 4.58325 3.52901 4.58325 3.75002V15Z" fill="#8B86BD"/>
</svg>
