<svg width="20" height="20" viewBox="0 0 20 20" fill="none" xmlns="http://www.w3.org/2000/svg">
<path d="M14.1667 11.25C14.1667 10.9185 14.0351 10.6006 13.8006 10.3661C13.5662 10.1317 13.2483 10 12.9167 10H7.08341C6.75189 10 6.43395 10.1317 6.19953 10.3661C5.96511 10.6006 5.83341 10.9185 5.83341 11.25V11.6667C5.83341 13.3092 7.38341 15 10.0001 15C12.6167 15 14.1667 13.3092 14.1667 11.6667V11.25ZM12.2917 6.87502C12.2917 6.26723 12.0503 5.68434 11.6205 5.25457C11.1908 4.8248 10.6079 4.58335 10.0001 4.58335C9.39229 4.58335 8.8094 4.8248 8.37963 5.25457C7.94986 5.68434 7.70841 6.26723 7.70841 6.87502C7.70841 7.48281 7.94986 8.0657 8.37963 8.49547C8.8094 8.92524 9.39229 9.16669 10.0001 9.16669C10.6079 9.16669 11.1908 8.92524 11.6205 8.49547C12.0503 8.0657 12.2917 7.48281 12.2917 6.87502ZM18.3334 10C18.3334 14.6025 14.6026 18.3334 10.0001 18.3334C5.39758 18.3334 1.66675 14.6025 1.66675 10C1.66675 5.39752 5.39758 1.66669 10.0001 1.66669C14.6026 1.66669 18.3334 5.39752 18.3334 10ZM17.0834 10C17.0834 8.1214 16.3371 6.31973 15.0088 4.99135C13.6804 3.66296 11.8787 2.91669 10.0001 2.91669C8.12146 2.91669 6.31979 3.66296 4.99141 4.99135C3.66303 6.31973 2.91675 8.1214 2.91675 10C2.91675 11.8786 3.66303 13.6803 4.99141 15.0087C6.31979 16.3371 8.12146 17.0834 10.0001 17.0834C11.8787 17.0834 13.6804 16.3371 15.0088 15.0087C16.3371 13.6803 17.0834 11.8786 17.0834 10Z" fill="#8B86BD"/>
</svg>
