<svg width="20" height="20" viewBox="0 0 20 20" fill="none" xmlns="http://www.w3.org/2000/svg">
<path d="M4.64283 4.99997C4.35866 4.99997 4.08614 5.11286 3.88521 5.31379C3.68428 5.51472 3.5714 5.78724 3.5714 6.0714V8.92855C3.5714 9.21271 3.68428 9.48523 3.88521 9.68616C4.08614 9.88709 4.35866 9.99997 4.64283 9.99997H8.21425C8.49841 9.99997 8.77094 9.88709 8.97187 9.68616C9.1728 9.48523 9.28568 9.21271 9.28568 8.92855V6.0714C9.28568 5.78724 9.1728 5.51472 8.97187 5.31379C8.77094 5.11286 8.49841 4.99997 8.21425 4.99997H4.64283ZM15 7.49997C15 7.97357 14.8118 8.42778 14.4769 8.76266C14.1421 9.09755 13.6879 9.28569 13.2143 9.28569C12.7407 9.28569 12.2864 9.09755 11.9516 8.76266C11.6167 8.42778 11.4285 7.97357 11.4285 7.49997C11.4285 7.02637 11.6167 6.57217 11.9516 6.23728C12.2864 5.9024 12.7407 5.71426 13.2143 5.71426C13.6879 5.71426 14.1421 5.9024 14.4769 6.23728C14.8118 6.57217 15 7.02637 15 7.49997ZM9.99997 11.0714V11.25C9.99997 12.0551 10.3198 12.8272 10.8891 13.3965C11.4584 13.9659 12.2306 14.2857 13.0357 14.2857H13.3928C14.1979 14.2857 14.9701 13.9659 15.5394 13.3965C16.1087 12.8272 16.4285 12.0551 16.4285 11.25V11.0714C16.4285 10.7872 16.3157 10.5147 16.1147 10.3138C15.9138 10.1129 15.6413 9.99997 15.3571 9.99997H11.0714C10.7872 9.99997 10.5147 10.1129 10.3138 10.3138C10.1129 10.5147 9.99997 10.7872 9.99997 11.0714ZM4.10997 2.85712C3.39957 2.85712 2.71826 3.13932 2.21593 3.64165C1.7136 4.14398 1.4314 4.82529 1.4314 5.53569V14.4643C1.4314 15.1747 1.7136 15.856 2.21593 16.3583C2.71826 16.8606 3.39957 17.1428 4.10997 17.1428H15.8928C16.6032 17.1428 17.2845 16.8606 17.7869 16.3583C18.2892 15.856 18.5714 15.1747 18.5714 14.4643V5.53569C18.5714 4.82529 18.2892 4.14398 17.7869 3.64165C17.2845 3.13932 16.6032 2.85712 15.8928 2.85712H4.10997ZM2.50283 5.53569C2.50283 5.10945 2.67215 4.70066 2.97355 4.39927C3.27494 4.09787 3.68373 3.92855 4.10997 3.92855H15.8928C16.3191 3.92855 16.7278 4.09787 17.0292 4.39927C17.3306 4.70066 17.5 5.10945 17.5 5.53569V14.4643C17.5 14.8905 17.3306 15.2993 17.0292 15.6007C16.7278 15.9021 16.3191 16.0714 15.8928 16.0714H4.11068C3.68444 16.0714 3.27566 15.9021 2.97426 15.6007C2.67286 15.2993 2.50354 14.8905 2.50354 14.4643V5.53569H2.50283Z" fill="#8B86BD"/>
</svg>
