<svg width="20" height="20" viewBox="0 0 20 20" fill="none" xmlns="http://www.w3.org/2000/svg">
<path d="M13.125 18.75C12.3863 18.75 11.6549 18.6045 10.9724 18.3218C10.2899 18.0391 9.66985 17.6248 9.14752 17.1025C8.62519 16.5801 8.21086 15.9601 7.92818 15.2776C7.64549 14.5951 7.5 13.8637 7.5 13.125C7.5 12.3863 7.64549 11.6549 7.92818 10.9724C8.21086 10.29 8.62519 9.66986 9.14752 9.14753C9.66985 8.6252 10.2899 8.21086 10.9724 7.92818C11.6549 7.6455 12.3863 7.5 13.125 7.5C14.6168 7.5 16.0476 8.09264 17.1025 9.14753C18.1574 10.2024 18.75 11.6332 18.75 13.125C18.75 14.6168 18.1574 16.0476 17.1025 17.1025C16.0476 18.1574 14.6168 18.75 13.125 18.75ZM9.62125 15.745L15.7463 9.62C14.9037 8.98813 13.8616 8.68135 12.8111 8.75601C11.7606 8.83066 10.7723 9.28174 10.0277 10.0264C9.28298 10.7711 8.83191 11.7594 8.75726 12.8099C8.6826 13.8603 8.98937 14.9025 9.62125 15.745ZM10.505 16.6288C11.3475 17.2606 12.3897 17.5674 13.4401 17.4927C14.4906 17.4181 15.4789 16.967 16.2236 16.2223C16.9683 15.4777 17.4193 14.4894 17.494 13.4389C17.5686 12.3884 17.2619 11.3463 16.63 10.5038L10.505 16.6288ZM12.0325 6.3375C10.4279 6.5952 8.96663 7.41373 7.90875 8.6475C7.24143 8.47917 6.63997 8.11446 6.18217 7.60057C5.72438 7.08668 5.43132 6.44724 5.3409 5.76498C5.25048 5.08271 5.36687 4.38901 5.675 3.77362C5.98313 3.15822 6.46883 2.64944 7.06927 2.31309C7.66971 1.97674 8.35727 1.8283 9.04299 1.88697C9.72872 1.94564 10.3811 2.20872 10.9156 2.64218C11.4502 3.07564 11.8424 3.65953 12.0415 4.31833C12.2407 4.97713 12.2375 5.68052 12.0325 6.3375ZM7 10C6.52 10.9375 6.25 12 6.25 13.125C6.25 14.7625 6.8225 16.265 7.7775 17.4463C4.44375 17.0663 2.5 14.7538 2.5 12.5V11.875C2.5 11.3777 2.69754 10.9008 3.04917 10.5492C3.40081 10.1975 3.87772 10 4.375 10H7Z" fill="#8B86BD"/>
</svg>
