<svg width="20" height="20" viewBox="0 0 20 20" fill="none" xmlns="http://www.w3.org/2000/svg">
<path d="M8.75008 4.16669C8.75008 4.82973 8.48669 5.46561 8.01785 5.93445C7.54901 6.40329 6.91312 6.66669 6.25008 6.66669C5.58704 6.66669 4.95116 6.40329 4.48231 5.93445C4.01347 5.46561 3.75008 4.82973 3.75008 4.16669C3.75008 3.50365 4.01347 2.86776 4.48231 2.39892C4.95116 1.93008 5.58704 1.66669 6.25008 1.66669C6.91312 1.66669 7.54901 1.93008 8.01785 2.39892C8.48669 2.86776 8.75008 3.50365 8.75008 4.16669ZM13.7501 8.33335C14.3026 8.33335 14.8325 8.11386 15.2232 7.72316C15.6139 7.33246 15.8334 6.80255 15.8334 6.25002C15.8334 5.69749 15.6139 5.16758 15.2232 4.77688C14.8325 4.38618 14.3026 4.16669 13.7501 4.16669C13.1975 4.16669 12.6676 4.38618 12.2769 4.77688C11.8862 5.16758 11.6667 5.69749 11.6667 6.25002C11.6667 6.80255 11.8862 7.33246 12.2769 7.72316C12.6676 8.11386 13.1975 8.33335 13.7501 8.33335ZM11.1634 8.95835C11.2201 9.15669 11.2501 9.36669 11.2501 9.58335V12.0834C11.2501 12.3378 11.192 12.5888 11.08 12.8172C10.9681 13.0457 10.8053 13.2455 10.6042 13.4013C10.4031 13.5571 10.169 13.6648 9.91984 13.7161C9.67068 13.7675 9.41307 13.7611 9.16675 13.6975V16.6667C9.16671 16.9807 9.07798 17.2883 8.91078 17.554C8.74357 17.8198 8.5047 18.0329 8.22168 18.1688C7.93865 18.3048 7.62298 18.358 7.31102 18.3224C6.99907 18.2868 6.70352 18.1638 6.45841 17.9675C6.21331 18.1638 5.91776 18.2868 5.60581 18.3224C5.29385 18.358 4.97818 18.3048 4.69515 18.1688C4.41213 18.0329 4.17325 17.8198 4.00605 17.554C3.83885 17.2883 3.75012 16.9807 3.75008 16.6667V13.6975C3.50376 13.7611 3.24615 13.7675 2.99699 13.7161C2.74783 13.6648 2.51373 13.5571 2.31263 13.4013C2.11153 13.2455 1.94876 13.0457 1.83681 12.8172C1.72486 12.5888 1.66668 12.3378 1.66675 12.0834V9.58335C1.66675 8.97557 1.90819 8.39267 2.33796 7.9629C2.76773 7.53313 3.35063 7.29169 3.95841 7.29169H8.95842C9.45727 7.29164 9.94251 7.45437 10.3405 7.75517C10.7384 8.05597 11.0274 8.47841 11.1634 8.95835ZM12.0209 8.95835H16.4584C17.0662 8.95835 17.6491 9.1998 18.0789 9.62957C18.5086 10.0593 18.7501 10.6422 18.7501 11.25V12.7084C18.7501 12.9628 18.692 13.2138 18.58 13.4422C18.4681 13.6707 18.3053 13.8705 18.1042 14.0263C17.9031 14.1821 17.669 14.2898 17.4198 14.3411C17.1707 14.3925 16.9131 14.3861 16.6667 14.3225V16.6667C16.6667 16.9807 16.578 17.2883 16.4108 17.554C16.2436 17.8198 16.0047 18.0329 15.7217 18.1688C15.4386 18.3048 15.123 18.358 14.811 18.3224C14.4991 18.2868 14.2035 18.1638 13.9584 17.9675C13.7133 18.1638 13.4178 18.2868 13.1058 18.3224C12.7939 18.358 12.4782 18.3048 12.1952 18.1688C11.9121 18.0329 11.6733 17.8198 11.5061 17.554C11.3389 17.2883 11.2501 16.9807 11.2501 16.6667V13.9467C11.7617 13.4884 12.0834 12.8234 12.0834 12.0834V9.58335C12.0834 9.36919 12.0617 9.16002 12.0209 8.95835Z" fill="#8B86BD"/>
</svg>
