<svg width="24" height="24" viewBox="0 0 24 24" fill="none" xmlns="http://www.w3.org/2000/svg">
<path d="M9.909 3.69999C10.5331 3.3 11.2588 3.0874 12 3.0874C12.7412 3.0874 13.4669 3.3 14.091 3.69999L22.155 8.86899C22.2603 8.93661 22.347 9.02951 22.4073 9.13922C22.4675 9.24893 22.4993 9.37197 22.4998 9.49713C22.5003 9.62228 22.4695 9.74557 22.4101 9.85576C22.3508 9.96595 22.2648 10.0595 22.16 10.128L19 12.193V17.75C19 17.9123 18.9474 18.0702 18.85 18.2L18.849 18.201L18.848 18.203L18.845 18.207L18.836 18.217L18.821 18.237C18.3387 18.783 17.7787 19.255 17.159 19.638C16.036 20.33 14.339 21 12 21C9.661 21 7.964 20.33 6.841 19.639C6.39161 19.3652 5.97259 19.0444 5.591 18.682C5.48099 18.5766 5.37556 18.4665 5.275 18.352C5.23189 18.3035 5.19053 18.2535 5.151 18.202L5.15 18.2C5.05263 18.0702 5 17.9123 5 17.75V12.193L3 10.886V16.25C3 16.4489 2.92098 16.6397 2.78033 16.7803C2.63968 16.921 2.44891 17 2.25 17C2.05109 17 1.86032 16.921 1.71967 16.7803C1.57902 16.6397 1.5 16.4489 1.5 16.25V9.49999C1.4999 9.37159 1.53276 9.24531 1.59545 9.13325C1.65813 9.02119 1.74853 8.9271 1.858 8.85999L9.908 3.69999H9.909ZM14.119 15.381C13.4889 15.7925 12.7526 16.0117 12 16.0117C11.2474 16.0117 10.5111 15.7925 9.881 15.381L6.5 13.172V17.469C6.83808 17.8112 7.21652 18.1111 7.627 18.362C8.536 18.92 9.964 19.5 12 19.5C14.036 19.5 15.464 18.92 16.373 18.361C16.7834 18.1104 17.1619 17.8109 17.5 17.469V13.172L14.12 15.382L14.119 15.381ZM13.282 4.96199C12.501 4.46199 11.499 4.46199 10.718 4.96199L3.63 9.50599L10.701 14.126C11.491 14.641 12.51 14.641 13.299 14.126L20.369 9.50599L13.282 4.96199Z" fill="#F2F2FD"/>
</svg>
