<svg width="33" height="32" viewBox="0 0 33 32" fill="none" xmlns="http://www.w3.org/2000/svg">
<path d="M16.0044 11C14.6783 11 13.4066 11.5268 12.4689 12.4644C11.5312 13.4021 11.0044 14.6739 11.0044 16C11.0044 17.326 11.5312 18.5978 12.4689 19.5355C13.4066 20.4732 14.6783 21 16.0044 21C17.3305 21 18.6023 20.4732 19.5399 19.5355C20.4776 18.5978 21.0044 17.326 21.0044 16C21.0044 14.6739 20.4776 13.4021 19.5399 12.4644C18.6023 11.5268 17.3305 11 16.0044 11ZM13.0044 16C13.0044 15.2043 13.3205 14.4413 13.8831 13.8786C14.4457 13.316 15.2088 13 16.0044 13C16.8001 13 17.5631 13.316 18.1257 13.8786C18.6883 14.4413 19.0044 15.2043 19.0044 16C19.0044 16.7956 18.6883 17.5587 18.1257 18.1213C17.5631 18.6839 16.8001 19 16.0044 19C15.2088 19 14.4457 18.6839 13.8831 18.1213C13.3205 17.5587 13.0044 16.7956 13.0044 16ZM12.8444 29.628C13.8794 29.875 14.9404 30 16.0044 30C17.0674 29.9983 18.1266 29.8725 19.1604 29.625C19.4574 29.555 19.7255 29.3947 19.9279 29.1663C20.1302 28.9378 20.2568 28.6523 20.2904 28.349L20.5244 26.219C20.547 25.9866 20.6245 25.763 20.7506 25.5665C20.8768 25.3701 21.0478 25.2064 21.2497 25.0892C21.4516 24.9719 21.6784 24.9044 21.9116 24.8922C22.1447 24.88 22.3774 24.9234 22.5904 25.019L24.5454 25.875C24.8253 25.9981 25.1365 26.0311 25.436 25.9693C25.7354 25.9074 26.0082 25.7539 26.2164 25.53C27.6609 23.9735 28.7392 22.1139 29.3724 20.087C29.4632 19.7938 29.4605 19.4796 29.3646 19.1881C29.2687 18.8965 29.0845 18.642 28.8374 18.46L27.1084 17.185C26.9196 17.0473 26.766 16.867 26.6601 16.6586C26.5543 16.4503 26.4993 16.2199 26.4996 15.9862C26.4999 15.7525 26.5555 15.5222 26.6618 15.3142C26.7682 15.1061 26.9222 14.9261 27.1114 14.789L28.8314 13.519C29.0799 13.3373 29.2653 13.0825 29.3616 12.7902C29.4579 12.4979 29.4603 12.1827 29.3684 11.889C28.7364 9.86136 27.6576 8.00136 26.2114 6.44597C26.0023 6.22241 25.729 6.06918 25.4292 6.00739C25.1294 5.94561 24.8179 5.9783 24.5374 6.10097L22.5914 6.95697C22.3781 7.04994 22.1459 7.09143 21.9136 7.07806C21.6813 7.0647 21.4555 6.99687 21.2542 6.88005C21.053 6.76322 20.8821 6.60069 20.7553 6.40559C20.6285 6.21049 20.5494 5.9883 20.5244 5.75697L20.2884 3.63697C20.2554 3.33002 20.127 3.04115 19.9212 2.811C19.7155 2.58085 19.4427 2.42101 19.1414 2.35397C18.1145 2.12452 17.0665 2.00286 16.0144 1.99097C14.956 2.0035 13.9018 2.12514 12.8684 2.35397C12.567 2.41986 12.294 2.57897 12.0882 2.80872C11.8823 3.03846 11.754 3.3272 11.7214 3.63397L11.4844 5.75597C11.4585 5.98765 11.3787 6.21004 11.2514 6.40535C11.1242 6.60065 10.9529 6.76344 10.7514 6.88066C10.5499 6.99789 10.3238 7.0663 10.0911 7.08042C9.85837 7.09454 9.6256 7.05397 9.41141 6.96197L7.46541 6.10497C7.18463 5.98571 6.87405 5.95532 6.57548 6.01789C6.27691 6.08047 6.00467 6.233 5.79541 6.45497C4.34904 8.01187 3.26934 9.87265 2.63541 11.901C2.54518 12.194 2.5483 12.5078 2.64433 12.7989C2.74037 13.0901 2.92456 13.3441 3.17141 13.526L4.89641 14.798C5.08432 14.9362 5.23708 15.1168 5.34237 15.3249C5.44765 15.5331 5.50251 15.7632 5.50251 15.9965C5.50251 16.2298 5.44765 16.4598 5.34237 16.668C5.23708 16.8762 5.08432 17.0567 4.89641 17.195L3.17141 18.47C2.92363 18.6521 2.7389 18.9071 2.64299 19.1993C2.54709 19.4915 2.54478 19.8064 2.63641 20.1C3.27004 22.1296 4.34975 23.9917 5.79641 25.55C5.93394 25.6978 6.10068 25.8155 6.28608 25.8956C6.47147 25.9756 6.67147 26.0163 6.87341 26.015C7.07641 26.015 7.27741 25.973 7.46441 25.892L9.41941 25.033C9.63264 24.9408 9.86451 24.9 10.0964 24.9138C10.3283 24.9275 10.5537 24.9955 10.7545 25.1122C10.9554 25.2289 11.126 25.3911 11.2528 25.5858C11.3795 25.7804 11.4589 26.0021 11.4844 26.233L11.7194 28.359C11.7535 28.6607 11.8799 28.9445 12.0812 29.1718C12.2825 29.399 12.549 29.5577 12.8444 29.628ZM18.3454 27.762C16.8025 28.0785 15.2113 28.0785 13.6684 27.762L13.4734 26.022C13.3781 25.1708 12.9722 24.3846 12.3334 23.814C11.8333 23.3736 11.2188 23.0836 10.561 22.9774C9.90313 22.8713 9.22866 22.9533 8.61541 23.214L7.00941 23.914C5.9734 22.7277 5.17614 21.3525 4.66141 19.864L6.08541 18.812C6.52535 18.4878 6.88296 18.0648 7.12942 17.577C7.37588 17.0893 7.50428 16.5504 7.50428 16.004C7.50428 15.4575 7.37588 14.9187 7.12942 14.4309C6.88296 13.9432 6.52535 13.5201 6.08541 13.196L4.66441 12.147C5.17975 10.6599 5.97696 9.28618 7.01241 8.10097L8.61241 8.80097C9.05341 8.9957 9.53032 9.09586 10.0124 9.09497C10.8709 9.09227 11.6985 8.77415 12.3377 8.20111C12.9769 7.62806 13.3833 6.84006 13.4794 5.98697L13.6734 4.23997C14.4474 4.08997 15.2334 4.00997 16.0204 3.99997C16.8024 4.00997 17.5824 4.08997 18.3504 4.23997L18.5364 5.97997C18.629 6.83361 19.034 7.62287 19.6734 8.19597C20.1738 8.63903 20.7899 8.93069 21.4498 9.03692C22.1097 9.14316 22.7862 9.05959 23.4004 8.79597L25.0004 8.09597C26.0373 9.28086 26.8353 10.6551 27.3504 12.143L25.9274 13.189C25.4852 13.512 25.1255 13.9349 24.8775 14.4232C24.6295 14.9114 24.5003 15.4513 24.5003 15.999C24.5003 16.5466 24.6295 17.0865 24.8775 17.5748C25.1255 18.0631 25.4852 18.4859 25.9274 18.809L27.3494 19.859C26.8338 21.3441 26.0377 22.7163 25.0044 23.901L23.4044 23.201C22.9037 22.9782 22.3574 22.877 21.8101 22.9058C21.2629 22.9345 20.7302 23.0924 20.2556 23.3664C19.781 23.6405 19.378 24.023 19.0796 24.4826C18.7811 24.9422 18.5957 25.4659 18.5384 26.011L18.3454 27.762Z" fill="#F2F2FD"/>
</svg>
