<svg width="24" height="24" viewBox="0 0 24 24" fill="none" xmlns="http://www.w3.org/2000/svg">
<path d="M5.57149 5.99999C5.2305 5.99999 4.90347 6.13545 4.66235 6.37656C4.42123 6.61768 4.28577 6.94471 4.28577 7.2857V10.7143C4.28577 11.0553 4.42123 11.3823 4.66235 11.6234C4.90347 11.8645 5.2305 12 5.57149 12H9.8572C10.1982 12 10.5252 11.8645 10.7663 11.6234C11.0075 11.3823 11.1429 11.0553 11.1429 10.7143V7.2857C11.1429 6.94471 11.0075 6.61768 10.7663 6.37656C10.5252 6.13545 10.1982 5.99999 9.8572 5.99999H5.57149ZM18.0001 8.99999C18.0001 9.56831 17.7743 10.1134 17.3724 10.5152C16.9706 10.9171 16.4255 11.1428 15.8572 11.1428C15.2889 11.1428 14.7438 10.9171 14.342 10.5152C13.9401 10.1134 13.7143 9.56831 13.7143 8.99999C13.7143 8.43167 13.9401 7.88662 14.342 7.48476C14.7438 7.08289 15.2889 6.85713 15.8572 6.85713C16.4255 6.85713 16.9706 7.08289 17.3724 7.48476C17.7743 7.88662 18.0001 8.43167 18.0001 8.99999ZM12.0001 13.2857V13.5C12.0001 14.4661 12.3839 15.3927 13.067 16.0759C13.7502 16.759 14.6768 17.1428 15.6429 17.1428H16.0715C17.0376 17.1428 17.9642 16.759 18.6474 16.0759C19.3305 15.3927 19.7143 14.4661 19.7143 13.5V13.2857C19.7143 12.9447 19.5789 12.6177 19.3378 12.3766C19.0966 12.1354 18.7696 12 18.4286 12H13.2858C12.9448 12 12.6178 12.1354 12.3766 12.3766C12.1355 12.6177 12.0001 12.9447 12.0001 13.2857ZM4.93206 3.42856C4.07958 3.42856 3.26201 3.76721 2.65922 4.37C2.05642 4.9728 1.71777 5.79036 1.71777 6.64284V17.3571C1.71777 18.2096 2.05642 19.0272 2.65922 19.63C3.26201 20.2328 4.07958 20.5714 4.93206 20.5714H19.0715C19.924 20.5714 20.7415 20.2328 21.3443 19.63C21.9471 19.0272 22.2858 18.2096 22.2858 17.3571V6.64284C22.2858 5.79036 21.9471 4.9728 21.3443 4.37C20.7415 3.76721 19.924 3.42856 19.0715 3.42856H4.93206ZM3.00349 6.64284C3.00349 6.13135 3.20668 5.64082 3.56835 5.27914C3.93003 4.91746 4.42057 4.71427 4.93206 4.71427H19.0715C19.583 4.71427 20.0735 4.91746 20.4352 5.27914C20.7969 5.64082 21.0001 6.13135 21.0001 6.64284V17.3571C21.0001 17.8686 20.7969 18.3592 20.4352 18.7208C20.0735 19.0825 19.583 19.2857 19.0715 19.2857H4.93292C4.42143 19.2857 3.93089 19.0825 3.56921 18.7208C3.20753 18.3592 3.00435 17.8686 3.00435 17.3571V6.64284H3.00349Z" fill="#F2F2FD"/>
</svg>
