<svg width="24" height="24" viewBox="0 0 24 24" fill="none" xmlns="http://www.w3.org/2000/svg">
<path d="M7.7999 8.39999C8.59555 8.39999 9.35861 8.08392 9.92122 7.52131C10.4838 6.95871 10.7999 6.19564 10.7999 5.39999C10.7999 4.60434 10.4838 3.84128 9.92122 3.27867C9.35861 2.71606 8.59555 2.39999 7.7999 2.39999C7.00425 2.39999 6.24119 2.71606 5.67858 3.27867C5.11597 3.84128 4.7999 4.60434 4.7999 5.39999C4.7999 6.19564 5.11597 6.95871 5.67858 7.52131C6.24119 8.08392 7.00425 8.39999 7.7999 8.39999ZM7.7999 7.19999C7.32251 7.19999 6.86468 7.01035 6.52711 6.67279C6.18954 6.33522 5.9999 5.87738 5.9999 5.39999C5.9999 4.9226 6.18954 4.46477 6.52711 4.1272C6.86468 3.78964 7.32251 3.59999 7.7999 3.59999C8.27729 3.59999 8.73513 3.78964 9.0727 4.1272C9.41026 4.46477 9.5999 4.9226 9.5999 5.39999C9.5999 5.87738 9.41026 6.33522 9.0727 6.67279C8.73513 7.01035 8.27729 7.19999 7.7999 7.19999ZM7.7999 21.1416C7.54091 21.3732 7.22041 21.525 6.87708 21.5785C6.53375 21.632 6.18227 21.585 5.86507 21.4431C5.54787 21.3013 5.27851 21.0706 5.0895 20.7791C4.90049 20.4875 4.79991 20.1475 4.7999 19.8V16.1364C4.52833 16.2324 4.23768 16.2618 3.95237 16.2222C3.66707 16.1826 3.39543 16.0751 3.16029 15.9088C2.92514 15.7424 2.73336 15.522 2.60104 15.2662C2.46873 15.0103 2.39975 14.7264 2.3999 14.4384V12.6C2.3999 11.8043 2.71597 11.0413 3.27858 10.4787C3.84119 9.91606 4.60425 9.59999 5.3999 9.59999H10.1999C11.1815 9.59999 12.0527 10.0716 12.5999 10.8H18.5999C19.3956 10.8 20.1586 11.1161 20.7212 11.6787C21.2838 12.2413 21.5999 13.0043 21.5999 13.8V15C21.6001 15.288 21.5311 15.5719 21.3988 15.8278C21.2664 16.0836 21.0747 16.304 20.8395 16.4704C20.6044 16.6367 20.3327 16.7442 20.0474 16.7838C19.7621 16.8234 19.4715 16.794 19.1999 16.698V19.8C19.1999 20.1475 19.0993 20.4875 18.9103 20.7791C18.7213 21.0706 18.4519 21.3013 18.1347 21.4431C17.8175 21.585 17.4661 21.632 17.1227 21.5785C16.7794 21.525 16.4589 21.3732 16.1999 21.1416C15.9409 21.3732 15.6204 21.525 15.2771 21.5785C14.9338 21.632 14.5823 21.585 14.2651 21.4431C13.9479 21.3013 13.6785 21.0706 13.4895 20.7791C13.3005 20.4875 13.1999 20.1475 13.1999 19.8V14.442C13.1995 14.7297 13.1301 15.0132 12.9975 15.2686C12.865 15.524 12.6731 15.7438 12.4381 15.9098C12.203 16.0758 11.9316 16.1829 11.6465 16.2224C11.3615 16.2618 11.0712 16.2323 10.7999 16.1364V19.8C10.7999 20.1475 10.6993 20.4875 10.5103 20.7791C10.3213 21.0706 10.0519 21.3013 9.73473 21.4431C9.41753 21.585 9.06605 21.632 8.72273 21.5785C8.3794 21.525 8.05889 21.3732 7.7999 21.1416ZM3.5999 12.6V14.4384C3.5999 14.5975 3.66312 14.7501 3.77564 14.8627C3.88816 14.9752 4.04077 15.0384 4.1999 15.0384C4.35903 15.0384 4.51164 14.9752 4.62417 14.8627C4.73669 14.7501 4.7999 14.5975 4.7999 14.4384V12.6C4.7999 12.4409 4.86312 12.2883 4.97564 12.1757C5.08816 12.0632 5.24077 12 5.3999 12C5.55903 12 5.71164 12.0632 5.82417 12.1757C5.93669 12.2883 5.9999 12.4409 5.9999 12.6V19.8C5.9999 19.9591 6.06312 20.1117 6.17564 20.2243C6.28816 20.3368 6.44077 20.4 6.5999 20.4C6.75903 20.4 6.91164 20.3368 7.02417 20.2243C7.13669 20.1117 7.1999 19.9591 7.1999 19.8V16.2C7.1999 16.0409 7.26312 15.8883 7.37564 15.7757C7.48816 15.6632 7.64077 15.6 7.7999 15.6C7.95903 15.6 8.11164 15.6632 8.22417 15.7757C8.33669 15.8883 8.3999 16.0409 8.3999 16.2V19.8C8.3999 19.9591 8.46312 20.1117 8.57564 20.2243C8.68816 20.3368 8.84077 20.4 8.9999 20.4C9.15903 20.4 9.31164 20.3368 9.42417 20.2243C9.53669 20.1117 9.5999 19.9591 9.5999 19.8V12.6C9.5999 12.4409 9.66312 12.2883 9.77564 12.1757C9.88816 12.0632 10.0408 12 10.1999 12C10.359 12 10.5116 12.0632 10.6242 12.1757C10.7367 12.2883 10.7999 12.4409 10.7999 12.6V14.4384C10.7999 14.5975 10.8631 14.7501 10.9756 14.8627C11.0882 14.9752 11.2408 15.0384 11.3999 15.0384C11.559 15.0384 11.7116 14.9752 11.8242 14.8627C11.9367 14.7501 11.9999 14.5975 11.9999 14.4384V12.6C11.9999 12.1226 11.8103 11.6648 11.4727 11.3272C11.1351 10.9896 10.6773 10.8 10.1999 10.8H5.3999C4.92251 10.8 4.46468 10.9896 4.12711 11.3272C3.78955 11.6648 3.5999 12.1226 3.5999 12.6ZM13.1399 12C13.1795 12.1944 13.1999 12.3948 13.1999 12.6V13.2H14.3999V19.8C14.3999 19.9591 14.4631 20.1117 14.5756 20.2243C14.6882 20.3368 14.8408 20.4 14.9999 20.4C15.159 20.4 15.3116 20.3368 15.4242 20.2243C15.5367 20.1117 15.5999 19.9591 15.5999 19.8V17.4C15.5999 17.2409 15.6631 17.0883 15.7756 16.9757C15.8882 16.8632 16.0408 16.8 16.1999 16.8C16.359 16.8 16.5116 16.8632 16.6242 16.9757C16.7367 17.0883 16.7999 17.2409 16.7999 17.4V19.8C16.7999 19.9591 16.8631 20.1117 16.9756 20.2243C17.0882 20.3368 17.2408 20.4 17.3999 20.4C17.559 20.4 17.7116 20.3368 17.8242 20.2243C17.9367 20.1117 17.9999 19.9591 17.9999 19.8V13.8C17.9999 13.6409 18.0631 13.4883 18.1756 13.3757C18.2882 13.2632 18.4408 13.2 18.5999 13.2C18.759 13.2 18.9116 13.2632 19.0242 13.3757C19.1367 13.4883 19.1999 13.6409 19.1999 13.8V15C19.1999 15.1591 19.2631 15.3117 19.3756 15.4243C19.4882 15.5368 19.6408 15.6 19.7999 15.6C19.959 15.6 20.1116 15.5368 20.2242 15.4243C20.3367 15.3117 20.3999 15.1591 20.3999 15V13.8C20.3999 13.3226 20.2103 12.8648 19.8727 12.5272C19.5351 12.1896 19.0773 12 18.5999 12H13.1399ZM19.1999 7.19999C19.1999 7.83651 18.947 8.44696 18.497 8.89705C18.0469 9.34714 17.4364 9.59999 16.7999 9.59999C16.1634 9.59999 15.5529 9.34714 15.1028 8.89705C14.6528 8.44696 14.3999 7.83651 14.3999 7.19999C14.3999 6.56347 14.6528 5.95302 15.1028 5.50294C15.5529 5.05285 16.1634 4.79999 16.7999 4.79999C17.4364 4.79999 18.0469 5.05285 18.497 5.50294C18.947 5.95302 19.1999 6.56347 19.1999 7.19999ZM17.9999 7.19999C17.9999 6.88173 17.8735 6.57651 17.6484 6.35147C17.4234 6.12642 17.1182 5.99999 16.7999 5.99999C16.4816 5.99999 16.1764 6.12642 15.9514 6.35147C15.7263 6.57651 15.5999 6.88173 15.5999 7.19999C15.5999 7.51825 15.7263 7.82348 15.9514 8.04852C16.1764 8.27357 16.4816 8.39999 16.7999 8.39999C17.1182 8.39999 17.4234 8.27357 17.6484 8.04852C17.8735 7.82348 17.9999 7.51825 17.9999 7.19999Z" fill="#F2F2FD"/>
</svg>
