<svg width="24" height="24" viewBox="0 0 24 24" fill="none" xmlns="http://www.w3.org/2000/svg">
<path d="M15.75 22.5C14.8636 22.5 13.9858 22.3254 13.1669 21.9862C12.3479 21.647 11.6038 21.1498 10.977 20.523C10.3502 19.8962 9.85303 19.1521 9.51381 18.3331C9.17459 17.5142 9 16.6364 9 15.75C9 14.8636 9.17459 13.9858 9.51381 13.1669C9.85303 12.3479 10.3502 11.6038 10.977 10.977C11.6038 10.3502 12.3479 9.85302 13.1669 9.5138C13.9858 9.17458 14.8636 8.99999 15.75 8.99999C17.5402 8.99999 19.2571 9.71115 20.523 10.977C21.7888 12.2429 22.5 13.9598 22.5 15.75C22.5 17.5402 21.7888 19.2571 20.523 20.523C19.2571 21.7888 17.5402 22.5 15.75 22.5ZM11.5455 18.894L18.8955 11.544C17.8845 10.7857 16.6339 10.4176 15.3733 10.5072C14.1128 10.5968 12.9268 11.1381 12.0332 12.0317C11.1396 12.9253 10.5983 14.1112 10.5087 15.3718C10.4191 16.6324 10.7872 17.883 11.5455 18.894ZM12.606 19.9545C13.617 20.7127 14.8676 21.0809 16.1282 20.9913C17.3887 20.9017 18.5747 20.3604 19.4683 19.4668C20.3619 18.5732 20.9032 17.3872 20.9928 16.1267C21.0824 14.8661 20.7143 13.6155 19.956 12.6045L12.606 19.9545ZM9.333 20.9355C5.3325 20.4795 3 17.7045 3 15V14.25C3 13.6533 3.23705 13.081 3.65901 12.659C4.08097 12.237 4.65326 12 5.25 12H8.4C8.15469 12.4794 7.95723 12.9818 7.8105 13.5H5.25C5.05109 13.5 4.86032 13.579 4.71967 13.7197C4.57902 13.8603 4.5 14.0511 4.5 14.25V15C4.5 16.692 5.823 18.4995 8.253 19.2C8.541 19.824 8.9055 20.406 9.333 20.9355ZM14.439 7.60349C14.6846 6.81542 14.6881 5.97179 14.4491 5.1817C14.2101 4.39161 13.7395 3.6914 13.0983 3.17162C12.457 2.65185 11.6746 2.33641 10.8521 2.26612C10.0297 2.19582 9.20503 2.37389 8.48487 2.77731C7.76471 3.18072 7.18214 3.79091 6.81251 4.52898C6.44288 5.26705 6.30318 6.09904 6.41149 6.91736C6.51979 7.73568 6.87112 8.50268 7.42003 9.11918C7.96894 9.73568 8.69019 10.1733 9.4905 10.3755C9.96388 9.82479 10.5075 9.33863 11.1075 8.92949C10.4916 9.0767 9.84317 8.99627 9.28187 8.70304C8.72056 8.40981 8.28418 7.92355 8.05318 7.3339C7.82219 6.74424 7.81214 6.09096 8.0249 5.49449C8.23766 4.89801 8.65888 4.39856 9.21091 4.08821C9.76293 3.77787 10.4085 3.67754 11.0287 3.80574C11.6489 3.93394 12.2018 4.28202 12.5855 4.7858C12.9693 5.28959 13.1579 5.91511 13.1168 6.54705C13.0756 7.179 12.8074 7.77476 12.3615 8.22449C13.0234 7.92633 13.722 7.7175 14.439 7.60349Z" fill="#F2F2FD"/>
</svg>
