<svg width="24" height="24" viewBox="0 0 24 24" fill="none" xmlns="http://www.w3.org/2000/svg">
<path d="M11.9999 8.24997C11.0053 8.24997 10.0515 8.64506 9.34824 9.34832C8.64497 10.0516 8.24989 11.0054 8.24989 12C8.24989 12.9945 8.64497 13.9484 9.34824 14.6516C10.0515 15.3549 11.0053 15.75 11.9999 15.75C12.9944 15.75 13.9483 15.3549 14.6515 14.6516C15.3548 13.9484 15.7499 12.9945 15.7499 12C15.7499 11.0054 15.3548 10.0516 14.6515 9.34832C13.9483 8.64506 12.9944 8.24997 11.9999 8.24997ZM9.74989 12C9.74989 11.4032 9.98694 10.8309 10.4089 10.409C10.8309 9.98703 11.4031 9.74997 11.9999 9.74997C12.5966 9.74997 13.1689 9.98703 13.5909 10.409C14.0128 10.8309 14.2499 11.4032 14.2499 12C14.2499 12.5967 14.0128 13.169 13.5909 13.591C13.1689 14.0129 12.5966 14.25 11.9999 14.25C11.4031 14.25 10.8309 14.0129 10.4089 13.591C9.98694 13.169 9.74989 12.5967 9.74989 12ZM9.62989 22.221C10.4061 22.4062 11.2019 22.5 11.9999 22.5C12.7971 22.4988 13.5915 22.4044 14.3669 22.2187C14.5897 22.1662 14.7907 22.046 14.9425 21.8747C15.0942 21.7033 15.1892 21.4892 15.2144 21.2617L15.3899 19.6642C15.4068 19.49 15.465 19.3222 15.5596 19.1749C15.6542 19.0275 15.7825 18.9048 15.9339 18.8169C16.0853 18.729 16.2554 18.6783 16.4303 18.6692C16.6051 18.66 16.7796 18.6926 16.9394 18.7642L18.4056 19.4062C18.6155 19.4986 18.849 19.5233 19.0736 19.477C19.2982 19.4306 19.5027 19.3154 19.6589 19.1475C20.7423 17.9802 21.551 16.5854 22.0259 15.0652C22.094 14.8453 22.0919 14.6097 22.02 14.3911C21.9481 14.1724 21.8099 13.9815 21.6246 13.845L20.3279 12.8887C20.1862 12.7855 20.071 12.6502 19.9917 12.494C19.9123 12.3377 19.8711 12.1649 19.8713 11.9897C19.8715 11.8144 19.9132 11.6417 19.993 11.4856C20.0727 11.3296 20.1882 11.1946 20.3301 11.0917L21.6201 10.1392C21.8065 10.003 21.9455 9.81188 22.0178 9.59263C22.09 9.37339 22.0918 9.13704 22.0229 8.91672C21.5489 7.39602 20.7398 6.00102 19.6551 4.83448C19.4983 4.66681 19.2934 4.55189 19.0685 4.50555C18.8437 4.45921 18.61 4.48372 18.3996 4.57572L16.9401 5.21772C16.7802 5.28746 16.606 5.31857 16.4318 5.30855C16.2576 5.29853 16.0882 5.24765 15.9373 5.16003C15.7863 5.07242 15.6582 4.95052 15.5631 4.80419C15.468 4.65787 15.4087 4.49122 15.3899 4.31772L15.2129 2.72773C15.1881 2.49752 15.0918 2.28086 14.9375 2.10825C14.7832 1.93564 14.5786 1.81576 14.3526 1.76548C13.5825 1.59339 12.7965 1.50214 12.0074 1.49323C11.2136 1.50262 10.4229 1.59386 9.64789 1.76548C9.42186 1.8149 9.21712 1.93423 9.06271 2.10654C8.90831 2.27885 8.81206 2.4954 8.78764 2.72548L8.60989 4.31697C8.59047 4.49073 8.53063 4.65753 8.43517 4.80401C8.33971 4.95049 8.21127 5.07258 8.06014 5.1605C7.90901 5.24842 7.7394 5.29973 7.56488 5.31032C7.39036 5.3209 7.21578 5.29048 7.05514 5.22147L5.59564 4.57872C5.38505 4.48928 5.15212 4.46649 4.92819 4.51342C4.70426 4.56035 4.50009 4.67475 4.34314 4.84122C3.25836 6.0089 2.44858 7.40449 1.97314 8.92572C1.90547 9.14547 1.90781 9.38083 1.97983 9.59919C2.05186 9.81755 2.19 10.0081 2.37514 10.1445L3.66889 11.0985C3.80982 11.2022 3.92439 11.3376 4.00336 11.4937C4.08232 11.6499 4.12346 11.8224 4.12346 11.9973C4.12346 12.1723 4.08232 12.3448 4.00336 12.501C3.92439 12.6571 3.80982 12.7925 3.66889 12.8962L2.37514 13.8525C2.1893 13.9891 2.05076 14.1803 1.97883 14.3995C1.9069 14.6187 1.90517 14.8548 1.97389 15.075C2.44911 16.5972 3.25889 17.9938 4.34389 19.1625C4.44703 19.2734 4.57209 19.3616 4.71114 19.4217C4.85019 19.4817 5.00019 19.5122 5.15164 19.5112C5.30389 19.5112 5.45464 19.4797 5.59489 19.419L7.06114 18.7747C7.22106 18.7056 7.39497 18.675 7.56888 18.6853C7.74278 18.6957 7.91185 18.7466 8.06247 18.8342C8.2131 18.9217 8.3411 19.0433 8.43617 19.1893C8.53124 19.3353 8.59074 19.5016 8.60989 19.6747L8.78614 21.2692C8.81173 21.4955 8.90649 21.7084 9.05748 21.8788C9.20847 22.0493 9.40836 22.1683 9.62989 22.221ZM13.7556 20.8215C12.5984 21.0588 11.4051 21.0588 10.2479 20.8215L10.1016 19.5165C10.0301 18.8781 9.72572 18.2884 9.24664 17.8605C8.87155 17.5302 8.41072 17.3127 7.91732 17.2331C7.42393 17.1535 6.91808 17.215 6.45814 17.4105L5.25364 17.9355C4.47663 17.0457 3.87869 16.0144 3.49264 14.898L4.56064 14.109C4.89059 13.8658 5.1588 13.5486 5.34365 13.1828C5.52849 12.817 5.62479 12.4128 5.62479 12.003C5.62479 11.5931 5.52849 11.189 5.34365 10.8232C5.1588 10.4574 4.89059 10.1401 4.56064 9.89698L3.49489 9.11023C3.88139 7.99494 4.4793 6.96464 5.25589 6.07572L6.45589 6.60072C6.78664 6.74678 7.14433 6.82189 7.50589 6.82123C8.14975 6.81921 8.77042 6.58061 9.24985 6.15083C9.72928 5.72104 10.034 5.13004 10.1061 4.49022L10.2516 3.17997C10.8321 3.06747 11.4216 3.00747 12.0119 2.99997C12.5984 3.00747 13.1834 3.06747 13.7594 3.17997L13.8989 4.48497C13.9684 5.12521 14.2721 5.71715 14.7516 6.14698C15.127 6.47927 15.589 6.69802 16.0839 6.77769C16.5789 6.85737 17.0862 6.79469 17.5469 6.59697L18.7469 6.07197C19.5246 6.96064 20.1231 7.99131 20.5094 9.10722L19.4421 9.89173C19.1105 10.134 18.8407 10.4512 18.6547 10.8174C18.4687 11.1836 18.3718 11.5885 18.3718 11.9992C18.3718 12.41 18.4687 12.8149 18.6547 13.1811C18.8407 13.5473 19.1105 13.8644 19.4421 14.1067L20.5086 14.8942C20.1219 16.008 19.5249 17.0372 18.7499 17.9257L17.5499 17.4007C17.1744 17.2336 16.7646 17.1577 16.3542 17.1793C15.9437 17.2009 15.5442 17.3193 15.1883 17.5248C14.8323 17.7304 14.5301 18.0172 14.3063 18.3619C14.0824 18.7067 13.9433 19.0995 13.9004 19.5082L13.7556 20.8215Z" fill="#F2F2FD"/>
</svg>
