<svg width="24" height="24" viewBox="0 0 24 24" fill="none" xmlns="http://www.w3.org/2000/svg">
<path d="M10.2001 13.5C10.4388 13.5 10.6677 13.4052 10.8365 13.2364C11.0053 13.0676 11.1001 12.8387 11.1001 12.6C11.1001 12.3613 11.0053 12.1324 10.8365 11.9636C10.6677 11.7948 10.4388 11.7 10.2001 11.7C9.9614 11.7 9.73248 11.7948 9.5637 11.9636C9.39492 12.1324 9.3001 12.3613 9.3001 12.6C9.3001 12.8387 9.39492 13.0676 9.5637 13.2364C9.73248 13.4052 9.9614 13.5 10.2001 13.5ZM13.2001 4.19999C13.2001 4.11351 13.1813 4.02805 13.1452 3.94948C13.1091 3.87091 13.0564 3.80108 12.9907 3.74478C12.9251 3.68848 12.848 3.64703 12.7649 3.62328C12.6817 3.59953 12.5944 3.59405 12.5089 3.60719L4.1089 4.89119C3.96728 4.91297 3.83813 4.98471 3.7448 5.09344C3.65148 5.20217 3.60015 5.34071 3.6001 5.48399V18.516C3.60015 18.6593 3.65148 18.7978 3.7448 18.9065C3.83813 19.0153 3.96728 19.087 4.1089 19.1088L12.5089 20.394C12.5944 20.4071 12.6817 20.4016 12.7649 20.3779C12.848 20.3542 12.9251 20.3127 12.9907 20.2564C13.0564 20.2001 13.1091 20.1303 13.1452 20.0517C13.1813 19.9731 13.2001 19.8877 13.2001 19.8012V12H19.4065L18.2101 13.0488C18.0975 13.1554 18.0305 13.3014 18.0232 13.4563C18.016 13.6112 18.0689 13.7629 18.171 13.8796C18.2731 13.9963 18.4165 14.069 18.571 14.0823C18.7254 14.0956 18.8791 14.0487 18.9997 13.9512L21.3949 11.8512C21.4591 11.7949 21.5106 11.7255 21.5459 11.6477C21.5812 11.5699 21.5994 11.4854 21.5994 11.4C21.5994 11.3146 21.5812 11.2301 21.5459 11.1523C21.5106 11.0745 21.4591 11.0051 21.3949 10.9488L18.9997 8.84879C18.88 8.74408 18.7237 8.6912 18.565 8.70178C18.4064 8.71236 18.2584 8.78553 18.1537 8.90519C18.049 9.02486 17.9961 9.18122 18.0067 9.33987C18.0173 9.49853 18.0904 9.64648 18.2101 9.75119L19.4065 10.8H13.2001V4.19999ZM12.0001 4.89839V19.104L4.8001 18V5.99879L12.0001 4.89839ZM15.0001 19.2H14.4001V13.2H15.6001V18.6C15.6001 18.7591 15.5369 18.9117 15.4244 19.0243C15.3118 19.1368 15.1592 19.2 15.0001 19.2ZM14.4001 9.59999V4.79999H15.0001C15.1592 4.79999 15.3118 4.86321 15.4244 4.97573C15.5369 5.08825 15.6001 5.24086 15.6001 5.39999V9.59999H14.4001Z" fill="#F2F2FD"/>
</svg>
