<svg width="24" height="24" viewBox="0 0 24 24" fill="none" xmlns="http://www.w3.org/2000/svg">
<path d="M10.1306 2.53301C10.5138 2.19104 10.9988 2.00348 11.5 2.00348C12.0012 2.00348 12.4862 2.19104 12.8694 2.53301L19.2444 8.22801C19.7242 8.65501 20 9.28401 20 9.94801V19.75C20 20.2141 19.8259 20.6593 19.5159 20.9874C19.206 21.3156 18.7856 21.5 18.3472 21.5H15.5139C15.0755 21.5 14.6552 21.3156 14.3452 20.9874C14.0352 20.6593 13.8611 20.2141 13.8611 19.75V14.75C13.8611 14.5511 13.7865 14.3603 13.6536 14.2197C13.5208 14.079 13.3406 14 13.1528 14H9.84722C9.65936 14 9.47919 14.079 9.34636 14.2197C9.21352 14.3603 9.13889 14.5511 9.13889 14.75V19.75C9.13889 20.2141 8.96476 20.6593 8.6548 20.9874C8.34485 21.3156 7.92445 21.5 7.48611 21.5H4.65278C4.43573 21.5 4.22081 21.4547 4.02029 21.3668C3.81976 21.2789 3.63756 21.15 3.48409 20.9874C3.33061 20.8249 3.20887 20.632 3.12581 20.4197C3.04275 20.2074 3 19.9798 3 19.75V9.94701C3 9.28401 3.27578 8.65501 3.75556 8.22701L10.1306 2.53301Z" fill="#F2F2FD"/>
</svg>
