<svg width="33" height="32" viewBox="0 0 33 32" fill="none" xmlns="http://www.w3.org/2000/svg">
<g clip-path="url(#clip0_233_404)">
<path d="M30.6876 9.66469C30.0872 8.29172 29.2925 7.01222 28.3279 5.86545C26.902 4.11961 25.1225 2.69554 23.1065 1.68698C21.0905 0.678438 18.8838 0.108257 16.6316 0.0139716C14.3794 -0.0803134 12.1328 0.303434 10.0396 1.13998C7.94641 1.97651 6.0541 3.24686 4.48724 4.86741C2.92037 6.48795 1.71447 8.42197 0.948895 10.5422C0.183324 12.6623 -0.124569 14.9206 0.0455007 17.1683C0.215582 19.4161 0.859742 21.6023 1.93561 23.5831C3.01148 25.5641 4.49466 27.2946 6.28753 28.6609C7.43792 29.5551 8.70908 30.2821 10.0632 30.8201C11.9616 31.5981 13.9935 31.9988 16.0452 32C20.2803 31.9907 24.3389 30.3025 27.3314 27.3056C30.3239 24.3087 32.006 20.2476 32.0091 16.0125C32.0122 13.8279 31.5623 11.6665 30.6876 9.66469ZM16.0334 3.25788C17.8759 3.25769 19.6961 3.66039 21.3665 4.43777C20.9592 4.61377 20.5309 4.7367 20.0922 4.80354C18.6488 5.01249 17.3116 5.68264 16.2802 6.71399C15.2489 7.74532 14.5787 9.08253 14.3698 10.526C14.2781 11.3355 13.9098 12.0887 13.3273 12.6583C12.7448 13.228 11.9837 13.5791 11.1723 13.6527C9.72878 13.8617 8.39158 14.5319 7.36025 15.5632C6.32892 16.5945 5.65876 17.9317 5.44981 19.3752C5.37906 20.1449 5.05064 20.8683 4.5177 21.4282C3.59815 19.4853 3.18507 17.3412 3.31689 15.1957C3.4487 13.0501 4.12113 10.9728 5.27161 9.15698C6.42207 7.34124 8.0132 5.84599 9.89692 4.81043C11.7806 3.77488 13.8957 3.23269 16.0452 3.23428L16.0334 3.25788ZM6.27573 24.2717C6.41732 24.1419 6.5589 24.0239 6.70049 23.8824C7.75018 22.8647 8.42397 21.5213 8.61191 20.0713C8.68811 19.2562 9.052 18.495 9.63841 17.9239C10.2027 17.3366 10.9622 16.9756 11.774 16.9092C13.2175 16.7003 14.5547 16.0301 15.586 14.9987C16.6173 13.9674 17.2875 12.6302 17.4965 11.1867C17.5476 10.3343 17.9133 9.53113 18.523 8.93316C19.1012 8.35719 19.8679 8.00942 20.6822 7.95384C22.0083 7.77139 23.245 7.18186 24.2218 6.26661C25.3341 7.18936 26.2764 8.29943 27.0064 9.5467C26.9615 9.60723 26.9101 9.66268 26.853 9.71188C26.2898 10.3044 25.5313 10.6733 24.7174 10.7502C23.2724 10.9555 21.9332 11.6245 20.9012 12.6564C19.8692 13.6885 19.2002 15.0276 18.9949 16.4727C18.9117 17.2849 18.5503 18.0434 17.972 18.6197C17.3935 19.1961 16.6336 19.5546 15.821 19.6348C14.3733 19.8421 13.0312 20.5109 11.9938 21.5418C10.9566 22.5728 10.2794 23.9108 10.0632 25.3572C9.99969 25.9338 9.80158 26.4876 9.48502 26.9737C8.27445 26.2549 7.19025 25.3421 6.27573 24.2717ZM16.0334 28.8261C14.8362 28.8274 13.6446 28.6606 12.4937 28.3305C12.8875 27.5967 13.1434 26.7968 13.2489 25.9708C13.3316 25.1603 13.6913 24.4032 14.2673 23.8271C14.8434 23.2511 15.6005 22.8914 16.411 22.8087C17.8566 22.6021 19.1965 21.9329 20.2302 20.9014C21.2637 19.8699 21.9357 18.5313 22.1452 17.0862C22.2279 16.2757 22.5877 15.5186 23.1637 14.9426C23.7397 14.3665 24.4969 14.0068 25.3073 13.9241C26.3952 13.7826 27.4321 13.3776 28.3279 12.7442C28.8253 14.6295 28.8842 16.6037 28.5001 18.5154C28.1161 20.4271 27.2991 22.2254 26.1121 23.7724C24.9252 25.3192 23.3997 26.5738 21.6525 27.4396C19.9055 28.3054 17.9833 28.7596 16.0334 28.7671V28.8261Z" fill="#F2F2FD"/>
</g>
<defs>
<clipPath id="clip0_233_404">
<rect width="32.0091" height="32" fill="white"/>
</clipPath>
</defs>
</svg>
